<?xml version="1.0" encoding="UTF-8" standalone="no"?>
<!DOCTYPE svg PUBLIC "-//W3C//DTD SVG 1.1//EN"
"http://www.w3.org/Graphics/SVG/1.1/DTD/svg11.dtd">


<!-- Page 1 -->
<svg x="0" y="0" width="433" height="433" viewBox="0 0 433 433" version="1.1" xmlns="http://www.w3.org/2000/svg" xmlns:xlink="http://www.w3.org/1999/xlink"
style="display: block;margin-left: auto;margin-right: auto;">
<defs>

<style type="text/css"><![CDATA[

.g1_1{
fill: #231F20;
}


]]></style>

</defs>
<path d="M0,0
L0,433
L433,433
L433,0 Z " 
fill="#FFFFFF" stroke="none" />
<image x="34" y="23" width="368" height="368" xlink:href="1/shade/1.png" />
<image preserveAspectRatio="none" x="35" y="61" width="361" height="289" xlink:href="1/img/1.png" />
<path d="M310.9,157.4l0.5,-3.4l0,3.4Z" class="g1_1" />
<path d="M244.9,261.1l0.6,-3.4l-5.3,0Z" class="g1_1" />
<path d="M179.6,238.5c-17.3,0,-31.4,-14.1,-31.4,-31.5c0,-17.4,14.1,-31.4,31.4,-31.4c17.4,0,31.5,14,31.5,31.4c0,17.4,-14.1,31.5,-31.5,31.5m65.3,22.6L220.5,237.4c6.3,-8.5,10,-19,10,-30.4c0,-28.1,-22.8,-50.9,-50.9,-50.9c-28.1,0,-50.9,22.8,-50.9,50.9c0,28.1,22.8,50.9,50.9,50.9c9.8,0,18.8,-2.7,26.6,-7.5l11.7,10.7Z" class="g1_1" />
<path d="M235.2,184.2l20.2,0c0,0,-0.1,-13.1,14.1,-13.1c14.1,0,12.3,11.7,12.3,11.7c0,0,1,12.3,-12.5,12.3l-5.5,0l0,15.3l5.4,0c0,0,17.2,-1.3,17.2,14.7c0,15.9,-11.8,16.6,-16,16.6c-9.8,0,-17.4,-4.4,-17.4,-12.8l0,-1.4l-20,0c0,0,-2.6,29.7,37.6,29.7c29.5,0,36,-18.4,36,-32c0,-20.3,-19,-24,-19,-24c0,0,14.1,-2.5,14.1,-20.1c0,-17.6,-15.9,-25.3,-31.3,-25.3c-15.5,0,-35.2,7.2,-35.2,28.4Z" class="g1_1" />
<path d="M348.5,238.4l-17.2,0l0,-62.8l14.4,0c0,0,28.4,-1.7,28.4,28.5c0,38.1,-25.6,34.3,-25.6,34.3m-5.2,-81l-32.4,0l0,99.2l35.6,0c0,0,47.7,5.4,47.7,-53.6c0,-49.9,-50.9,-45.6,-50.9,-45.6Z" class="g1_1" />
<path d="M263.8,195.1l0.5,-3.3l0,3.6Z" class="g1_1" />
<path d="M233,227.5l0.5,-3.4c0,0,0,3,0.1,3.6c0.1,0.7,-0.6,-0.2,-0.6,-0.2Z" class="g1_1" />
<path d="M255.9,180.8l-0.5,3.4l-1.5,-3.3Z" class="g1_1" />
<image preserveAspectRatio="none" x="127" y="149" width="269" height="108" xlink:href="1/img/2.png" />

</svg>
