<?xml version="1.0" encoding="utf-8"?>
<!-- Generator: Adobe Illustrator 15.1.0, SVG Export Plug-In . SVG Version: 6.00 Build 0)  -->
<!DOCTYPE svg PUBLIC "-//W3C//DTD SVG 1.1//EN" "http://www.w3.org/Graphics/SVG/1.1/DTD/svg11.dtd">
<svg version="1.1" id="Ebene_1" xmlns="http://www.w3.org/2000/svg" xmlns:xlink="http://www.w3.org/1999/xlink" x="0px" y="0px"
	 width="283.46px" height="283.46px" viewBox="0 0 283.46 283.46" enable-background="new 0 0 283.46 283.46" xml:space="preserve">
<g>
	
		<radialGradient id="SVGID_1_" cx="112.9985" cy="133.9849" r="109.8062" gradientTransform="matrix(-0.5884 -0.796 1.4329 -1.0591 -12.212 365.9238)" gradientUnits="userSpaceOnUse">
		<stop  offset="0" style="stop-color:#0D0D0D"/>
		<stop  offset="0.1284" style="stop-color:#292929"/>
		<stop  offset="0.4048" style="stop-color:#727272"/>
		<stop  offset="0.4908" style="stop-color:#8A8A8A"/>
		<stop  offset="0.5385" style="stop-color:#999999"/>
		<stop  offset="0.6363" style="stop-color:#B4B4B4"/>
		<stop  offset="0.7237" style="stop-color:#C4C4C4"/>
		<stop  offset="0.7914" style="stop-color:#C9C9C9"/>
	</radialGradient>
	<path fill="url(#SVGID_1_)" d="M280.382,141.321c0,76.713-62.188,138.9-138.895,138.9c-76.712,0-138.9-62.188-138.9-138.9
		c0-76.718,62.188-138.904,138.9-138.904C218.194,2.417,280.382,64.604,280.382,141.321"/>
	<path opacity="0.9" fill="#FFFFFF" d="M112.762,249.462c-0.567,0-1.04-0.439-1.082-1.006l-6.715-94.033l-46.298,41.053
		c-0.43,0.383-1.082,0.359-1.488-0.045s-0.423-1.057-0.044-1.486l41.057-46.299l-94.037-6.717c-0.567-0.04-1.007-0.512-1.007-1.083
		c0-0.569,0.44-1.042,1.007-1.083l94.037-6.719L57.133,85.747c-0.38-0.43-0.362-1.082,0.044-1.488
		c0.407-0.405,1.059-0.424,1.488-0.043l46.299,41.052l6.715-94.034c0.042-0.567,0.514-1.008,1.082-1.008
		c0.571,0,1.044,0.44,1.084,1.008l6.716,94.036l46.307-41.056c0.43-0.382,1.082-0.362,1.487,0.043
		c0.405,0.406,0.425,1.058,0.043,1.488l-41.06,46.298l94.043,6.717c0.562,0.042,1.004,0.515,1.004,1.083
		c0,0.571-0.441,1.044-1.004,1.084l-94.042,6.717l41.061,46.297c0.381,0.43,0.359,1.082-0.044,1.486
		c-0.407,0.404-1.06,0.426-1.487,0.045l-46.309-41.055l-6.715,94.037C113.806,249.022,113.333,249.462,112.762,249.462z
		 M105.89,151.063c0.139,0,0.277,0.027,0.409,0.08c0.385,0.156,0.645,0.516,0.674,0.93l5.79,81.07l5.79-81.074
		c0.033-0.412,0.293-0.771,0.675-0.928c0.382-0.154,0.819-0.08,1.129,0.193l34.422,30.516l-30.523-34.412
		c-0.272-0.309-0.35-0.746-0.195-1.129c0.158-0.385,0.518-0.645,0.93-0.676l81.079-5.79l-81.08-5.792
		c-0.413-0.028-0.772-0.29-0.93-0.672c-0.155-0.382-0.077-0.821,0.195-1.129l30.522-34.414l-34.42,30.518
		c-0.31,0.274-0.747,0.351-1.129,0.193c-0.382-0.157-0.642-0.515-0.675-0.927l-5.79-81.075l-5.79,81.073
		c-0.029,0.413-0.289,0.772-0.674,0.928c-0.38,0.158-0.819,0.082-1.128-0.192L70.755,97.837l30.519,34.414
		c0.273,0.308,0.351,0.747,0.194,1.129c-0.158,0.382-0.517,0.644-0.929,0.672l-81.075,5.793l81.075,5.791
		c0.413,0.031,0.771,0.291,0.929,0.674c0.157,0.385,0.079,0.822-0.194,1.131l-30.518,34.414l34.414-30.518
		C105.371,151.159,105.63,151.063,105.89,151.063z"/>
	<g>
		<polygon points="212.356,103.22 212.77,100.601 212.77,103.22 		"/>
		<g>
			<polygon points="159.511,179.68 159.924,177.061 155.951,177.061 			"/>
			<g>
				<g>
					<path d="M159.511,179.68l-15.917-15.644c4.806-6.451,7.65-14.447,7.65-23.113c0-21.382-17.327-38.712-38.704-38.712
						c-21.378,0-38.708,17.33-38.708,38.712c0,21.38,17.33,38.71,38.708,38.71c7.395,0,14.305-2.076,20.182-5.674l6.262,5.72
						H159.511z M112.54,164.839c-13.207,0-23.912-10.707-23.912-23.916c0-13.21,10.706-23.917,23.912-23.917
						c13.206,0,23.912,10.707,23.912,23.917C136.452,154.132,125.746,164.839,112.54,164.839z"/>
					<path d="M154.844,124.18h15.301c0,0-0.031-9.993,10.726-9.993c10.754,0,9.386,8.897,9.386,8.897s0.783,9.39-9.483,9.39h-4.206
						v11.639h4.108c0,0,13.102-0.976,13.102,11.148c0,12.125-8.995,12.613-12.224,12.613c-7.422,0-13.198-3.328-13.198-9.684v-1.07
						H153.1c0,0-1.955,22.588,28.651,22.588c22.398,0,27.381-13.982,27.381-24.348c0-15.456-14.473-18.291-14.473-18.291
						s10.757-1.859,10.757-15.259c0-13.396-12.125-19.264-23.86-19.264C169.823,102.549,154.844,108.066,154.844,124.18z"/>
					<path d="M237,103.22h-24.644v75.4h27.088c4.076,0,36.278,2.311,36.278-40.779C275.723,99.895,237,103.22,237,103.22z
						 M241.011,164.833h-13.104v-47.825h10.951c0,0,21.609-1.27,21.609,21.713C260.468,167.669,241.011,164.833,241.011,164.833z"/>
				</g>
				<polygon points="176.566,131.875 176.979,129.333 176.979,132.094 				"/>
				<path d="M153.1,156.522l0.412-2.621c0,0,0.025,2.297,0.082,2.783S153.1,156.522,153.1,156.522z"/>
				<polygon points="170.559,120.961 170.145,123.581 169.063,121.094 				"/>
			</g>
		</g>
	</g>
	<g>
		<g>
			<path fill="#244E99" d="M144.55,160.638c4.457-6.311,7.077-14.012,7.077-22.33c0-21.383-17.324-38.713-38.701-38.713
				s-38.708,17.33-38.708,38.713s17.33,38.713,38.708,38.713c7.396,0,14.305-2.076,20.182-5.674l6.262,5.72h20.521l-26.73-26.009
				c-4.233,6.713-11.714,11.168-20.233,11.168c-13.207,0-23.912-10.707-23.912-23.918c0-13.21,10.705-23.917,23.912-23.917
				c13.206,0,23.912,10.707,23.912,23.917c0,4.31-1.138,8.35-3.13,11.842L144.55,160.638z"/>
			<path fill="#244E99" d="M155.226,121.564h15.297c0,0-0.032-9.993,10.722-9.993c10.755,0,9.386,8.897,9.386,8.897
				s0.783,9.39-9.483,9.39h-4.206v11.64h4.109c0,0,13.102-0.977,13.102,11.15c0,12.123-8.995,12.613-12.224,12.613
				c-7.421,0-13.197-3.326-13.197-9.686v-1.07h-15.249c0,0-1.954,22.588,28.644,22.588c22.398,0,27.381-13.982,27.381-24.348
				c0-15.457-14.473-18.292-14.473-18.292s10.757-1.859,10.757-15.259c0-13.396-12.125-19.263-23.86-19.263
				C168.27,99.933,155.226,107.571,155.226,121.564z"/>
			<path fill="#244E99" d="M237.375,100.604H212.73v75.4h27.089c6.001,0,36.278,2.354,36.278-40.78
				C276.098,99.417,240.535,100.471,237.375,100.604z M241.386,162.22h-13.104v-47.828h10.951c0,0,21.609-1.271,21.609,21.713
				C260.843,161.31,246.894,162.716,241.386,162.22z"/>
		</g>
	</g>
</g>
</svg>
